<svg version="1.1" id="Layer_1" xmlns="http://www.w3.org/2000/svg" xmlns:xlink="http://www.w3.org/1999/xlink" x="0px" y="0px"
	 width="100%" viewBox="0 0 1080 1350" enable-background="new 0 0 1080 1350" xml:space="preserve">
<path fill="#000000" opacity="1.000000" stroke="none" 
	d="
M520.000000,1351.000000 
	C346.666656,1351.000000 173.833328,1351.000000 1.000000,1351.000000 
	C1.000000,901.000000 1.000000,451.000000 1.000000,1.000000 
	C361.000000,1.000000 721.000000,1.000000 1081.000000,1.000000 
	C1081.000000,451.000000 1081.000000,901.000000 1081.000000,1351.000000 
	C894.166687,1351.000000 707.333313,1351.000000 520.000000,1351.000000 
M554.530457,720.946289 
	C557.579102,725.694336 560.329285,730.668579 563.726624,735.152405 
	C581.387695,758.462097 605.581360,771.783936 633.280945,778.972046 
	C680.489197,791.222717 728.187012,791.347351 775.864624,782.243103 
	C801.831848,777.284607 825.900330,767.356628 845.751953,749.191895 
	C861.744751,734.558228 872.113342,716.525330 877.078003,695.372620 
	C876.464905,695.198303 876.146423,695.028503 875.827759,695.028381 
	C841.504456,695.010193 807.181030,694.967407 772.858459,695.120911 
	C771.317505,695.127808 769.588196,696.709900 768.281860,697.920166 
	C762.603394,703.180847 757.686035,709.549561 751.314941,713.715210 
	C738.819946,721.884766 724.326965,723.622009 709.658997,723.325928 
	C696.232605,723.055054 683.012512,721.239258 671.313660,714.093506 
	C648.938538,700.426453 640.919067,679.511353 643.367432,654.411560 
	C645.891663,628.533386 662.010193,610.236389 686.715881,603.692505 
	C702.484192,599.515869 718.387695,599.938416 734.198853,603.358582 
	C748.588989,606.471252 760.206909,613.916321 768.624146,626.259644 
	C769.629822,627.734253 772.393494,628.722656 774.347778,628.731506 
	C807.170898,628.880615 839.994812,628.838135 872.818604,628.838135 
	C874.118958,628.838135 875.419373,628.838135 877.131226,628.838135 
	C872.703979,609.476013 863.748413,593.025391 850.260498,579.176392 
	C831.299683,559.707886 807.397583,549.250977 781.480591,542.971802 
	C750.757385,535.528137 719.441406,534.855164 688.102661,536.369080 
	C662.251709,537.617798 636.864807,541.898376 612.756226,551.955017 
	C587.880249,562.331848 567.197083,577.933411 555.054321,602.419739 
	C535.748413,641.350769 536.320068,680.870605 554.530457,720.946289 
M459.500305,540.490662 
	C443.260010,540.490662 427.019684,540.490662 410.570801,540.490662 
	C410.570801,543.101318 410.570801,544.922729 410.570801,546.744202 
	C410.570801,583.566467 410.664642,620.389099 410.496643,657.210571 
	C410.460327,665.176086 410.148590,673.251282 408.810089,681.078674 
	C405.184753,702.279175 395.928558,716.962708 372.762695,721.405579 
	C365.487640,722.800842 357.840515,723.165405 350.428802,722.772705 
	C325.691345,721.462280 311.489105,709.672424 305.721252,685.624084 
	C303.913300,678.086121 303.624939,670.183777 302.617310,662.261841 
	C269.179779,662.261841 235.443283,662.261841 200.849075,662.261841 
	C201.931824,672.979004 202.385956,683.458923 204.133392,693.718445 
	C211.120529,734.741638 233.675079,763.001526 273.491730,776.706726 
	C292.517365,783.255554 312.203430,786.394226 332.200653,787.477417 
	C366.080780,789.312683 399.800354,788.585022 432.728577,779.017395 
	C458.071533,771.653687 479.716461,758.985535 494.121216,735.934814 
	C506.096008,716.772522 511.525848,695.589417 511.848358,673.372559 
	C512.477112,630.061218 512.171448,586.736267 512.240417,543.416992 
	C512.241699,542.601013 512.090454,541.784729 512.017212,541.038757 
	C511.582214,540.833618 511.283142,540.569580 510.983429,540.568909 
	C494.155762,540.528931 477.328033,540.510864 459.500305,540.490662 
z"/>
<path fill="#FEFEFE" opacity="1.000000" stroke="none" 
	d="
M554.338623,720.626770 
	C536.320068,680.870605 535.748413,641.350769 555.054321,602.419739 
	C567.197083,577.933411 587.880249,562.331848 612.756226,551.955017 
	C636.864807,541.898376 662.251709,537.617798 688.102661,536.369080 
	C719.441406,534.855164 750.757385,535.528137 781.480591,542.971802 
	C807.397583,549.250977 831.299683,559.707886 850.260498,579.176392 
	C863.748413,593.025391 872.703979,609.476013 877.131226,628.838135 
	C875.419373,628.838135 874.118958,628.838135 872.818604,628.838135 
	C839.994812,628.838135 807.170898,628.880615 774.347778,628.731506 
	C772.393494,628.722656 769.629822,627.734253 768.624146,626.259644 
	C760.206909,613.916321 748.588989,606.471252 734.198853,603.358582 
	C718.387695,599.938416 702.484192,599.515869 686.715881,603.692505 
	C662.010193,610.236389 645.891663,628.533386 643.367432,654.411560 
	C640.919067,679.511353 648.938538,700.426453 671.313660,714.093506 
	C683.012512,721.239258 696.232605,723.055054 709.658997,723.325928 
	C724.326965,723.622009 738.819946,721.884766 751.314941,713.715210 
	C757.686035,709.549561 762.603394,703.180847 768.281860,697.920166 
	C769.588196,696.709900 771.317505,695.127808 772.858459,695.120911 
	C807.181030,694.967407 841.504456,695.010193 875.827759,695.028381 
	C876.146423,695.028503 876.464905,695.198303 877.078003,695.372620 
	C872.113342,716.525330 861.744751,734.558228 845.751953,749.191895 
	C825.900330,767.356628 801.831848,777.284607 775.864624,782.243103 
	C728.187012,791.347351 680.489197,791.222717 633.280945,778.972046 
	C605.581360,771.783936 581.387695,758.462097 563.726624,735.152405 
	C560.329285,730.668579 557.579102,725.694336 554.338623,720.626770 
z"/>
<path fill="#FEFEFE" opacity="1.000000" stroke="none" 
	d="
M460.000305,540.490662 
	C477.328033,540.510864 494.155762,540.528931 510.983429,540.568909 
	C511.283142,540.569580 511.582214,540.833618 512.017212,541.038757 
	C512.090454,541.784729 512.241699,542.601013 512.240417,543.416992 
	C512.171448,586.736267 512.477112,630.061218 511.848358,673.372559 
	C511.525848,695.589417 506.096008,716.772522 494.121216,735.934814 
	C479.716461,758.985535 458.071533,771.653687 432.728577,779.017395 
	C399.800354,788.585022 366.080780,789.312683 332.200653,787.477417 
	C312.203430,786.394226 292.517365,783.255554 273.491730,776.706726 
	C233.675079,763.001526 211.120529,734.741638 204.133392,693.718445 
	C202.385956,683.458923 201.931824,672.979004 200.849075,662.261841 
	C235.443283,662.261841 269.179779,662.261841 302.617310,662.261841 
	C303.624939,670.183777 303.913300,678.086121 305.721252,685.624084 
	C311.489105,709.672424 325.691345,721.462280 350.428802,722.772705 
	C357.840515,723.165405 365.487640,722.800842 372.762695,721.405579 
	C395.928558,716.962708 405.184753,702.279175 408.810089,681.078674 
	C410.148590,673.251282 410.460327,665.176086 410.496643,657.210571 
	C410.664642,620.389099 410.570801,583.566467 410.570801,546.744202 
	C410.570801,544.922729 410.570801,543.101318 410.570801,540.490662 
	C427.019684,540.490662 443.260010,540.490662 460.000305,540.490662 
z"/>
</svg>